<svg xmlns="http://www.w3.org/2000/svg" viewBox="0 0 31.211 28.959"><defs><style>.a{fill:#2f2f2f;}</style></defs><g transform="translate(0.001 -16.365)"><g transform="translate(-0.001 16.365)"><path class="a" d="M15.907,16.365a17.585,17.585,0,0,0-2.033.119c-.32.041-.638.088-.944.141a1.779,1.779,0,0,0-.543.173A14.08,14.08,0,0,0,.136,28.816C-.986,36.6,4.908,43.93,13.276,45.161a15.51,15.51,0,0,0,2.251.163h0c7.681,0,14.354-5.223,15.521-12.149.673-3.991-.78-8.371-3.985-12.016A14.562,14.562,0,0,0,15.907,16.365Zm.9,3.572a11.5,11.5,0,0,1,7.71,3.681,10.927,10.927,0,0,1,2.919,9.637c-.9,4.223-5.339,8.5-12.085,8.5a12.7,12.7,0,0,1-2.291-.2c-6.2-1.138-10.394-6.859-9.347-12.754.9-5.055,5.347-8.586,10.82-8.586.369,0,.744.017,1.115.049A1.6,1.6,0,0,0,16.807,19.937Z" transform="translate(0.001 -16.365)"/></g></g></svg>